<svg xmlns="http://www.w3.org/2000/svg" viewBox="0 0 512 512" width="512" height="512" role="img" aria-label="ClearBlock">
  <title>ClearBlock</title>
  <!-- Generated by scripts/generate-icons.mjs from scripts/icon-artwork.mjs. Do not edit by hand. -->
  <path d="M256 45 C292 68 380 106 434 121 Q448 127 448 142 L448 215 C448 330 392 424 256 468 C120 424 64 330 64 215 L64 142 Q64 127 78 121 C132 106 220 68 256 45 Z" fill="#F97316" />
  <!-- Right half one step deeper, reproducing the centre fold of the reference. -->
  <path d="M256 45 C292 68 380 106 434 121 Q448 127 448 142 L448 215 C448 330 392 424 256 468 Z" fill="#EA580C" />

  <!-- Prohibition mark: ring plus a 45° slash that merges into it. -->
  <g stroke="#FFFFFF" fill="none">
    <circle cx="256" cy="261" r="120" stroke-width="31" />
    <path d="M171.15 176.15 L340.85 345.85" stroke-width="35" />
  </g>
</svg>
